<svg t="1739626241665" class="icon" viewBox="0 0 1024 1024" version="1.1" xmlns="http://www.w3.org/2000/svg" p-id="2158" width="256" height="256"><path d="M286.208 668.16V411.136h-1.024l-52.224 27.648-10.752-33.792L291.84 368.64h39.936v299.008l-45.568 0.512zM427.52 519.168c0-97.792 37.888-154.624 101.888-154.624 65.024 0 97.792 60.928 97.792 151.552 0 101.376-37.888 156.16-101.376 156.16-64 0-98.304-61.44-98.304-153.088z m152.064-1.536c0-71.168-15.36-116.736-51.712-116.736-31.232 0-52.736 41.984-52.736 116.736 0 74.24 18.944 117.76 51.712 117.76 40.448 0 52.736-55.808 52.736-117.76z" p-id="2159" fill="#e6e6e6"></path><path d="M166.912 523.776H43.52v-24.576h123.392v24.576z" p-id="2160" fill="#e6e6e6"></path><path d="M133.12 694.272c14.336 0 26.112 10.24 29.184 23.552 16.384 25.6 35.84 49.664 58.368 71.168 151.552 143.872 390.656 137.216 534.016-13.824 143.872-151.552 137.216-390.656-13.824-534.016C589.312 97.28 350.208 103.936 206.848 254.976c-16.896 17.92-32.256 37.376-45.056 58.368-1.536 4.096-3.584 8.192-7.168 11.264-0.512 0.512-0.512 1.024-1.024 1.536h-1.024c-5.12 4.608-11.776 7.168-19.456 7.168-16.384 0-29.696-13.312-29.696-29.696 0-8.192 3.072-15.36 8.192-20.48 15.36-24.576 33.28-48.128 53.76-69.12h-2.048C222.72 150.528 299.52 107.008 384 88.064c234.496-52.736 467.968 94.72 520.704 329.216s-94.72 467.968-329.216 520.704c-188.928 42.496-376.832-44.544-470.528-202.752h0.512c-1.536-3.584-2.048-7.168-2.048-11.264 0-16.384 13.312-29.696 29.696-29.696z" p-id="2161" fill="#e6e6e6"></path><path d="M160.768 287.744l-25.088-140.288c-3.584-20.992-19.456-34.304-35.328-29.184-15.872 4.608-25.6 26.112-22.016 47.104l25.088 140.288c3.584 20.992 19.456 34.304 35.328 29.184 15.872-4.608 25.6-26.624 22.016-47.104z" p-id="2162" fill="#e6e6e6"></path><path d="M791.552 468.48c-6.656-4.096-17.92-9.216-31.232-9.216-15.36 0-24.064 8.704-24.064 19.968s7.68 16.896 27.648 25.6c27.136 11.264 41.472 26.112 41.472 49.664 0 31.744-24.064 50.688-61.44 50.688-17.408 0-33.792-4.608-44.544-11.264l7.68-25.6c8.192 5.12 23.552 11.264 37.376 11.264 18.432 0 27.648-8.704 27.648-21.504s-6.656-19.456-26.624-27.648c-29.184-11.776-41.984-28.16-41.984-47.104 0-27.648 22.528-49.152 56.832-49.152 15.872 0 30.208 4.608 38.912 9.728l-7.68 24.576z" p-id="2163" fill="#e6e6e6"></path></svg>