<svg t="1739626253486" class="icon" viewBox="0 0 1024 1024" version="1.1" xmlns="http://www.w3.org/2000/svg" p-id="2365" width="256" height="256"><path d="M286.208 668.16V411.136h-1.024l-52.224 27.648-10.752-33.792L291.84 368.64h39.936v299.008l-45.568 0.512zM427.52 519.168c0-97.792 37.888-154.624 101.888-154.624 65.024 0 97.792 60.928 97.792 151.552 0 101.376-37.888 156.16-101.376 156.16-64 0-98.304-61.44-98.304-153.088z m152.064-1.536c0-71.168-15.36-116.736-51.712-116.736-31.232 0-52.736 41.984-52.736 116.736 0 74.24 18.944 117.76 51.712 117.76 40.448 0 52.736-55.808 52.736-117.76z" p-id="2366" fill="#e6e6e6"></path><path d="M796.672 468.48c-6.656-4.096-17.92-9.216-31.232-9.216-15.36 0-24.064 8.704-24.064 19.968s7.68 16.896 27.648 25.6c27.136 11.264 41.472 26.112 41.472 49.664 0 31.744-24.064 50.688-61.44 50.688-17.408 0-33.792-4.608-44.544-11.264l7.68-25.6c8.192 5.12 23.552 11.264 37.376 11.264 18.432 0 27.648-8.704 27.648-21.504s-6.656-19.456-26.624-27.648c-29.184-11.776-41.984-28.16-41.984-47.104 0-27.648 22.528-49.152 56.832-49.152 15.872 0 30.208 4.608 38.912 9.728l-7.68 24.576zM910.848 421.376h24.064v78.336h75.264v23.04h-75.264v78.848h-24.064v-78.848h-75.264v-23.04h75.264V421.376z" p-id="2367" fill="#e6e6e6"></path><path d="M889.344 723.968c0 4.096-0.512 7.68-2.048 11.264h0.512c-93.696 158.208-281.6 245.248-470.528 202.752-234.496-52.736-381.952-286.208-329.216-520.704S374.272 35.328 608.768 88.064c84.48 18.944 161.28 62.464 220.672 125.952h-2.048c20.48 20.992 38.4 44.544 53.76 69.12 5.12 5.12 8.192 12.288 8.192 20.48 0 16.384-13.312 29.696-29.696 29.696-7.68 0-14.336-2.56-19.456-7.168h-1.024c-0.512-0.512-0.512-1.024-1.024-1.536-3.584-3.072-5.632-7.168-7.168-11.264-12.8-20.992-28.16-40.448-45.056-58.368-143.36-151.04-382.464-157.696-534.016-13.824-151.04 143.36-157.696 382.464-13.824 534.016 143.36 151.04 382.464 157.696 534.016 13.824 22.528-21.504 41.984-45.568 58.368-71.168 3.072-13.312 14.848-23.552 29.184-23.552 16.384 0 29.696 13.312 29.696 29.696z" p-id="2368" fill="#e6e6e6"></path><path d="M854.016 335.36c15.872 4.608 31.744-8.192 35.328-29.184l25.088-140.288c3.584-20.992-6.144-42.496-22.016-47.104-15.872-4.608-31.744 8.192-35.328 29.184l-25.088 140.288c-3.584 19.968 6.144 41.984 22.016 47.104z" p-id="2369" fill="#e6e6e6"></path></svg>