<svg t="1739616704753" class="icon" viewBox="0 0 2528 1024" version="1.1" xmlns="http://www.w3.org/2000/svg" p-id="17729" width="256" height="256"><path d="M501.119843 1024H297.279907a63.99998 63.99998 0 0 1-63.99998-63.99998v-4.159999a63.99998 63.99998 0 0 1 63.99998-63.99998h203.839936a63.99998 63.99998 0 0 1 63.99998 63.99998V960.00002a63.99998 63.99998 0 0 1-63.99998 63.99998M2164.159324 1024h-203.839937a63.99998 63.99998 0 0 1-63.99998-63.99998v-4.159999a63.99998 63.99998 0 0 1 63.99998-63.99998h203.839937a63.99998 63.99998 0 0 1 63.99998 63.99998V960.00002a63.99998 63.99998 0 0 1-63.99998 63.99998" fill="#2169F9" p-id="17730"></path><path d="M0 726.720093V198.080258A199.359938 199.359938 0 0 1 199.679938 0.00032h2028.799366a199.359938 199.359938 0 0 1 199.679937 198.079938v561.599825a165.759948 165.759948 0 0 1-166.399948 165.119948H199.679938A199.359938 199.359938 0 0 1 0 726.720093" fill="#00DDF4" p-id="17731"></path><path d="M332.479896 561.600144v-198.399938a199.359938 199.359938 0 0 1 199.679938-198.079938h1796.159438A199.359938 199.359938 0 0 1 2527.99921 363.200206v231.359928a165.759948 165.759948 0 0 1-166.399948 165.119949H532.159834a199.359938 199.359938 0 0 1-199.679938-198.079939" fill="#FF4D78" p-id="17732"></path><path d="M698.559782 858.880052a429.439866 429.439866 0 1 1 432.319865-429.439866 429.439866 429.439866 0 0 1-432.319865 429.439866" fill="#FFFFFF" p-id="17733"></path><path d="M483.839849 623.040125a291.199909 291.199909 0 0 0 409.599872 0 286.079911 286.079911 0 0 0 40.639987-355.839889L691.839784 416.00019l150.399953-240.319925a291.199909 291.199909 0 0 0-358.399888 40.319987 287.99991 287.99991 0 0 0 0 406.719873" fill="#2169F9" p-id="17734"></path><path d="M2278.399288 396.480196H2111.99934a49.599985 49.599985 0 0 1 0-99.199969h166.399948a49.599985 49.599985 0 1 1 0 99.199969" fill="#FFFFFF" p-id="17735"></path></svg>