<svg t="1739612927329" class="icon" viewBox="0 0 1024 1024" version="1.1" xmlns="http://www.w3.org/2000/svg" p-id="2487" width="256" height="256"><path d="M158.478222 99.555556h707.043556A58.922667 58.922667 0 0 1 924.444444 158.478222v235.676445a58.922667 58.922667 0 0 1-58.922666 58.922666H158.478222A58.922667 58.922667 0 0 1 99.555556 394.154667V158.478222A58.922667 58.922667 0 0 1 158.478222 99.555556z m88.376889 117.845333a29.454222 29.454222 0 0 0 0 58.922667h176.768a29.454222 29.454222 0 0 0 0-58.922667H246.855111z m-88.376889 353.521778h707.043556A58.922667 58.922667 0 0 1 924.444444 629.845333v235.676445A58.922667 58.922667 0 0 1 865.521778 924.444444H158.478222A58.922667 58.922667 0 0 1 99.555556 865.521778V629.845333a58.922667 58.922667 0 0 1 58.922666-58.922666z m88.376889 117.845333a29.454222 29.454222 0 1 0 0 58.908444h176.768a29.454222 29.454222 0 0 0 0-58.908444H246.855111z" fill="#1677ff" p-id="2488"></path></svg>