<svg t="1739612992696" class="icon" viewBox="0 0 1024 1024" version="1.1" xmlns="http://www.w3.org/2000/svg" p-id="3146" width="256" height="256"><path d="M390.144 886.698667v-130.858667c0-33.152 26.965333-60.074667 60.330667-60.288h122.666666c33.536 0 60.714667 27.008 60.714667 60.288v130.474667c0 28.757333 23.381333 52.138667 52.352 52.352h83.626667a147.626667 147.626667 0 0 0 104.277333-42.666667 145.493333 145.493333 0 0 0 43.221333-103.338667V420.949333c0-31.36-13.994667-61.056-38.186666-81.152l-284.245334-225.706666a132.906667 132.906667 0 0 0-168.874666 3.029333L147.925333 339.754667A105.557333 105.557333 0 0 0 106.666667 420.992v371.328C106.666667 873.130667 172.672 938.666667 254.122667 938.666667h81.749333c13.952 0.085333 27.349333-5.333333 37.248-15.104 9.898667-9.728 15.488-23.04 15.488-36.864h1.536z" fill="#e6e6e6" p-id="3147"></path></svg>