<svg t="1739612909693" class="icon" viewBox="0 0 1024 1024" version="1.1" xmlns="http://www.w3.org/2000/svg" p-id="2123" width="256" height="256"><path d="M507.733333 42.666667a46.933333 46.933333 0 0 0-46.933333 46.933333v49.365333c-201.408 21.077333-362.901333 176.213333-393.664 374.570667-3.221333 20.8-4.842667 31.210667-0.490667 42.048 3.178667 7.957333 10.517333 16.512 17.877334 20.864 10.026667 5.952 22.186667 5.952 46.442666 5.952h157.12C317.973333 677.610667 406.912 746.666667 512 746.666667c105.066667 0 194.026667-69.056 223.914667-164.266667h148.544c24.277333 0 36.416 0 46.464-5.973333a46.72 46.72 0 0 0 17.877333-20.842667c4.330667-10.837333 2.730667-21.248-0.490667-42.026667C917.546667 315.157333 756.053333 160.021333 554.645333 138.944V89.6A46.933333 46.933333 0 0 0 507.733333 42.666667z m-127.466666 539.733333h263.466666A149.312 149.312 0 0 1 512 661.333333a149.312 149.312 0 0 1-131.733333-78.933333z m343.104 160.213333a42.666667 42.666667 0 0 1 60.330666 0l39.232 39.232a42.666667 42.666667 0 1 1-60.352 60.330667l-39.210666-39.210667a42.666667 42.666667 0 0 1 0-60.352z m-483.093334 0a42.666667 42.666667 0 1 1 60.330667 60.373334l-39.210667 39.210666a42.666667 42.666667 0 0 1-60.352-60.352l39.232-39.210666zM469.333333 861.866667a42.666667 42.666667 0 1 1 85.333334 0V917.333333a42.666667 42.666667 0 0 1-85.333334 0v-55.466666z" fill="#1677ff" p-id="2124"></path></svg>