<svg t="1739612948315" class="icon" viewBox="0 0 1024 1024" version="1.1" xmlns="http://www.w3.org/2000/svg" p-id="2648" width="256" height="256"><path d="M902.4 159.168a25.6 25.6 0 0 1 25.6 25.6v524.8a25.6 25.6 0 0 1-25.6 25.6H121.6a25.6 25.6 0 0 1-25.6-25.6v-524.8a25.6 25.6 0 0 1 25.6-25.6h780.8zM442.176 309.344a12.8 12.8 0 0 0-12.8 12.8v250.048a12.8 12.8 0 0 0 19.776 10.752l192.896-125.024a12.8 12.8 0 0 0 0-21.472l-192.896-125.024a12.8 12.8 0 0 0-6.976-2.08zM268.8 800.832h486.4c7.04 0 12.8 5.728 12.8 12.8v38.4a12.8 12.8 0 0 1-12.8 12.8H268.8a12.8 12.8 0 0 1-12.8-12.8v-38.4c0-7.072 5.76-12.8 12.8-12.8z" fill="#e6e6e6" p-id="2649"></path></svg>