<svg t="1739610393476" class="icon" viewBox="0 0 1024 1024" version="1.1" xmlns="http://www.w3.org/2000/svg" p-id="2359" width="256" height="256"><path d="M397.994667 64h-261.973334c-39.808 0-72.021333 32.213333-72.021333 72.021333v261.973334c0 39.808 32.213333 72.021333 72.021333 72.021333h261.973334c39.808 0 72.021333-32.213333 72.021333-72.021333v-261.973334c0-39.808-32.213333-72.021333-72.021333-72.021333z m490.026666 0h-262.016c-39.808 0-72.021333 32.213333-72.021333 72.021333v261.973334c0 39.808 32.213333 72.021333 72.021333 72.021333h261.973334c39.808 0 72.021333-32.213333 72.021333-72.021333v-261.973334c0-39.808-32.213333-72.021333-72.021333-72.021333zM397.994667 553.984h-261.973334c-39.808 0-72.021333 32.213333-72.021333 72.021333v261.973334c0 39.808 32.213333 72.021333 72.021333 72.021333h261.973334c39.808 0 72.021333-32.213333 72.021333-72.021333v-261.973334c0-39.808-32.213333-72.021333-72.021333-72.021333z m490.026666 0h-262.016c-39.808 0-72.021333 32.213333-72.021333 72.021333v261.973334c0 39.808 32.213333 72.021333 72.021333 72.021333h261.973334c39.808 0 72.021333-32.213333 72.021333-72.021333v-261.973334c0-39.808-32.213333-72.021333-72.021333-72.021333z" fill="#1677ff" p-id="2360"></path></svg>