<svg t="1739620319617" class="icon" viewBox="0 0 1024 1024" version="1.1" xmlns="http://www.w3.org/2000/svg" p-id="11946" width="256" height="256"><path d="M924 1024H100A100 100 0 0 1 0 924V100A100 100 0 0 1 100 0h824a100 100 0 0 1 100 100v824a100 100 0 0 1-100 100zM100 80a20 20 0 0 0-20 20v824a20 20 0 0 0 20 20h824a20 20 0 0 0 20-20V100a20 20 0 0 0-20-20z" fill="#1296db" p-id="11947"></path><path d="M419 864a40 40 0 0 1-29-12L211 663a40 40 0 0 1 58-55l179 188a40 40 0 0 1-29 68zM512 559a40 40 0 0 1-40-40V277a40 40 0 0 1 80 0v242a40 40 0 0 1-40 40zM604 864a40 40 0 0 1-29-68l179-189a40 40 0 1 1 58 55L633 852a40 40 0 0 1-29 12zM373 503a40 40 0 0 1-27-10l-90-80a100 100 0 0 1 0-149l90-80a40 40 0 0 1 67 30v249a40 40 0 0 1-40 40z m-40-201l-23 21a20 20 0 0 0 0 30l23 21zM652 503a40 40 0 0 1-40-40V213a40 40 0 0 1 67-30l90 80a100 100 0 0 1 0 149l-90 80a40 40 0 0 1-27 11z m40-201v71l23-21a20 20 0 0 0 0-30z" fill="#1296db" p-id="11948"></path></svg>