<svg t="1739698149862" class="icon" viewBox="0 0 1024 1024" version="1.1" xmlns="http://www.w3.org/2000/svg" p-id="3178" width="256" height="256"><path d="M929.651106 0H94.348894a94.348894 94.348894 0 0 0-94.348894 94.348894v835.302212a94.348894 94.348894 0 0 0 94.348894 94.348894h835.302212a94.348894 94.348894 0 0 0 94.348894-94.348894V94.348894a94.348894 94.348894 0 0 0-94.348894-94.348894z m31.449631 929.651106a31.449631 31.449631 0 0 1-31.449631 31.449631H94.348894a31.449631 31.449631 0 0 1-31.449631-31.449631V94.348894a31.449631 31.449631 0 0 1 31.449631-31.449631h835.302212a31.449631 31.449631 0 0 1 31.449631 31.449631z" fill="#e6e6e6" p-id="3179"></path><path d="M365.444717 392.4914h66.358723V240.589681h-66.358723V251.597052a66.673219 66.673219 0 1 0 0 133.031941zM658.555283 251.597052v-9.43489h-66.358723v151.90172h66.358723v-9.434889a66.673219 66.673219 0 1 0 0-133.031941zM512 486.840295a31.449631 31.449631 0 0 0-31.449631 31.449631v51.2629a31.449631 31.449631 0 1 0 62.899262 0V518.918919a31.449631 31.449631 0 0 0-31.449631-32.078624zM403.184275 678.997543a31.449631 31.449631 0 0 0-45.601965 0 31.449631 31.449631 0 0 0 0 45.287469l36.481572 36.481573A31.449631 31.449631 0 1 0 440.29484 715.164619zM620.815725 678.997543l-36.167076 36.167076A31.449631 31.449631 0 0 0 628.992629 760.766585L666.103194 723.341523a31.449631 31.449631 0 0 0-45.287469-45.287469z" fill="#e6e6e6" p-id="3180"></path></svg>