<svg t="1739620210016" class="icon" viewBox="0 0 1024 1024" version="1.1" xmlns="http://www.w3.org/2000/svg" p-id="7911" width="256" height="256"><path d="M548.9 795c-67.9 0-124.4-29.4-124.4-67.9h248.9c0 36.2-56.6 67.9-124.5 67.9zM548.9 433c-156.1 0-282.8 90.5-282.8 203.6h565.7c0-113.1-126.7-203.6-282.9-203.6z" fill="#e6e6e6" p-id="7912"></path><path d="M515 365.1c158.4 0 291.9 117.7 314.5 271.5H202.7C223.1 482.7 356.6 365.1 515 365.1m0-45.3c-199.1 0-362 162.9-362 362h724c0-201.3-162.9-362-362-362z" fill="#e6e6e6" p-id="7913"></path><path d="M666.6 681.9C646.2 747.5 587.4 795 515 795s-131.2-47.5-151.6-113.1h303.2m52-45.3H311.4c0 113.1 90.5 203.6 203.6 203.6s203.6-92.7 203.6-203.6zM515 328.9c-6.8 0-11.3-4.5-11.3-11.3V91.3c0-6.8 4.5-11.3 11.3-11.3 6.8 0 11.3 4.5 11.3 11.3v226.3c0 6.8-4.5 11.3-11.3 11.3zM515 976c-6.8 0-11.3-4.5-11.3-11.3v-67.9c0-6.8 4.5-11.3 11.3-11.3 6.8 0 11.3 4.5 11.3 11.3v67.9c0 4.5-4.5 11.3-11.3 11.3zM716.4 924c-4.5 0-6.8-2.3-9.1-4.5l-40.7-54.3c-4.5-4.5-2.3-11.3 2.3-15.8 4.5-4.5 11.3-2.3 15.8 2.3l40.7 54.3c4.5 4.5 2.3 11.3-2.3 15.8-2.2-0.1-4.5 2.2-6.7 2.2zM313.6 924c-2.3 0-4.5 0-6.8-2.3-4.5-4.5-6.8-11.3-2.3-15.8l40.7-54.3c4.5-4.5 11.3-6.8 15.8-2.3s6.8 11.3 2.3 15.8l-40.7 54.3c-2.2 2.3-4.5 4.6-9 4.6zM840.8 772.4h-4.5l-63.4-22.6c-6.8-2.3-9.1-9.1-6.8-13.6 2.3-6.8 9.1-9.1 13.6-6.8l63.4 22.6c6.8 2.3 9.1 9.1 6.8 13.6 0 2.2-4.6 6.8-9.1 6.8zM189.2 772.4c-4.5 0-9.1-2.3-11.3-6.8-2.3-6.8 0-11.3 6.8-13.6l63.4-22.6c6.8-2.3 11.3 0 13.6 6.8 2.3 6.8 0 11.3-6.8 13.6l-63.4 22.6h-2.3z" fill="#e6e6e6" p-id="7914"></path><path d="M390.5 428.4c-29.4 15.8-56.6 38.5-79.2 65.6" fill="#e6e6e6" p-id="7915"></path><path d="M311.4 505.4c-2.3 0-4.5 0-6.8-2.3-4.5-4.5-4.5-11.3-2.3-15.8 22.6-27.2 49.8-49.8 81.5-67.9 4.5-2.3 11.3 0 15.8 4.5 2.3 4.5 0 11.3-4.5 15.8-29.4 15.8-54.3 36.2-74.7 61.1-2.3 2.3-6.8 4.6-9 4.6z" fill="#e6e6e6" p-id="7916"></path></svg>